<svg id="wave" style="transform:rotate(180deg); transition: 0.3s" viewBox="0 0 1440 110" version="1.1" xmlns="http://www.w3.org/2000/svg"><defs><linearGradient id="sw-gradient-0" x1="0" x2="0" y1="1" y2="0"><stop stop-color="rgba(35, 33, 108, 1)" offset="0%"></stop><stop stop-color="rgba(35, 33, 108, 1)" offset="100%"></stop></linearGradient></defs><path style="transform:translate(0, 0px); opacity:1" fill="url(#sw-gradient-0)" d="M0,77L48,80.7C96,84,192,92,288,93.5C384,95,480,92,576,84.3C672,77,768,66,864,53.2C960,40,1056,26,1152,20.2C1248,15,1344,18,1440,31.2C1536,44,1632,66,1728,71.5C1824,77,1920,66,2016,66C2112,66,2208,77,2304,73.3C2400,70,2496,51,2592,49.5C2688,48,2784,62,2880,69.7C2976,77,3072,77,3168,64.2C3264,51,3360,26,3456,29.3C3552,33,3648,66,3744,82.5C3840,99,3936,99,4032,91.7C4128,84,4224,70,4320,53.2C4416,37,4512,18,4608,25.7C4704,33,4800,66,4896,75.2C4992,84,5088,70,5184,69.7C5280,70,5376,84,5472,80.7C5568,77,5664,55,5760,53.2C5856,51,5952,70,6048,67.8C6144,66,6240,44,6336,40.3C6432,37,6528,51,6624,47.7C6720,44,6816,22,6864,11L6912,0L6912,110L6864,110C6816,110,6720,110,6624,110C6528,110,6432,110,6336,110C6240,110,6144,110,6048,110C5952,110,5856,110,5760,110C5664,110,5568,110,5472,110C5376,110,5280,110,5184,110C5088,110,4992,110,4896,110C4800,110,4704,110,4608,110C4512,110,4416,110,4320,110C4224,110,4128,110,4032,110C3936,110,3840,110,3744,110C3648,110,3552,110,3456,110C3360,110,3264,110,3168,110C3072,110,2976,110,2880,110C2784,110,2688,110,2592,110C2496,110,2400,110,2304,110C2208,110,2112,110,2016,110C1920,110,1824,110,1728,110C1632,110,1536,110,1440,110C1344,110,1248,110,1152,110C1056,110,960,110,864,110C768,110,672,110,576,110C480,110,384,110,288,110C192,110,96,110,48,110L0,110Z"></path></svg>